<svg version="1.1" id="Layer_1" xmlns="http://www.w3.org/2000/svg" xmlns:xlink="http://www.w3.org/1999/xlink" x="0px" y="0px"
	 width="100%" viewBox="0 0 950 450" enable-background="new 0 0 950 450" xml:space="preserve">
<path fill="#FFFFFF" opacity="1.000000" stroke="none" 
	d="
M579.000000,451.000000 
	C386.034363,451.000000 193.568710,451.000000 1.051529,451.000000 
	C1.051529,301.061127 1.051529,151.122253 1.051529,1.091682 
	C317.549011,1.091682 634.098022,1.091682 950.823547,1.091682 
	C950.823547,150.999832 950.823547,300.999908 950.823547,451.000000 
	C827.122192,451.000000 703.311096,451.000000 579.000000,451.000000 
M639.094788,78.868286 
	C636.451050,86.888351 636.882202,94.471382 643.740112,100.161453 
	C647.110901,102.958313 648.334656,105.943726 647.330444,109.682480 
	C614.006348,80.084259 580.682190,50.486042 546.927795,20.505655 
	C489.811615,103.620667 433.117371,186.121597 376.101166,269.091064 
	C388.895050,275.044098 400.601715,280.575897 412.390961,285.925781 
	C415.974640,287.552032 419.786102,288.676422 423.483154,290.962036 
	C423.407837,317.255249 423.332550,343.548431 422.482178,369.987854 
	C415.701416,370.982788 408.920654,371.977722 402.028351,372.044769 
	C402.028351,346.125641 402.028351,320.206543 402.028351,294.290161 
	C366.568298,294.290161 331.815979,294.290161 296.616547,294.290161 
	C296.616547,296.374390 296.616547,298.171722 296.616547,299.969055 
	C296.616547,318.130554 296.650696,336.292175 296.600098,354.453522 
	C296.579254,361.938232 296.376282,369.422394 295.482086,376.978943 
	C290.235474,376.322388 285.004059,375.474121 279.738464,375.057404 
	C273.040375,374.527405 273.023285,374.678162 273.022827,367.913635 
	C273.020691,336.919281 273.004242,305.924866 273.050201,274.930573 
	C273.054535,272.018036 273.100372,269.879089 269.007629,269.901917 
	C242.013382,270.052429 215.017792,270.013031 188.022949,269.932190 
	C185.057724,269.923279 183.695724,270.773285 183.940536,273.903015 
	C184.134857,276.387299 183.978226,278.899017 183.978210,281.398560 
	C183.978104,310.393280 183.887817,339.388550 184.068146,368.382172 
	C184.097794,373.147614 183.131165,375.192963 177.788254,375.188873 
	C172.229797,375.184631 166.636765,376.480927 161.127808,377.560425 
	C158.965485,377.984131 156.990295,379.362762 154.929871,380.306519 
	C157.129318,382.446625 158.886887,383.654297 160.764160,383.884155 
	C172.909256,385.371094 185.071854,387.687927 197.244690,387.787781 
	C230.267822,388.058716 263.390381,389.695404 296.506226,384.984070 
	C296.450897,395.088898 296.395538,405.193695 295.624725,415.391937 
	C284.637299,416.995667 273.191498,416.514343 262.927216,422.560913 
	C265.082672,424.169464 267.231567,425.438354 269.538300,425.876831 
	C275.899139,427.085999 282.306030,428.645111 288.730133,428.829010 
	C320.309937,429.732910 351.905609,430.843445 383.486664,430.617981 
	C398.859894,430.508240 414.223145,427.721008 429.565857,425.930908 
	C431.959747,425.651611 434.219452,424.222260 436.541229,423.324738 
	C436.470001,422.712860 436.398773,422.100983 436.327545,421.489105 
	C425.529053,416.579681 413.675964,416.716309 402.027710,414.306152 
	C402.061249,402.864319 402.094788,391.422455 402.957001,379.960907 
	C415.959442,381.276215 428.947327,383.499115 441.967529,383.707733 
	C465.246552,384.080780 488.556152,383.555542 511.829773,382.742462 
	C520.527771,382.438599 529.174805,380.361237 537.809875,378.886444 
	C539.235962,378.642914 540.480225,377.334869 541.808472,376.518799 
	C540.463440,375.508423 539.233521,373.861328 537.754150,373.593933 
	C529.784363,372.153168 521.752625,371.054932 513.531006,368.950043 
	C513.524658,357.308655 513.518250,345.667297 514.248901,334.029205 
	C516.462524,334.670563 518.802734,335.038055 520.870605,335.994476 
	C549.525635,349.248016 578.118408,362.636108 606.786316,375.861542 
	C614.599731,379.466156 622.611511,382.640656 630.766418,386.909668 
	C630.834351,390.916901 630.902283,394.924133 630.051819,399.106262 
	C597.587891,400.028564 565.114014,400.960968 532.965942,406.077545 
	C525.621582,407.246429 518.411682,409.395782 511.249634,411.472260 
	C509.630737,411.941589 508.469849,413.990631 507.098206,415.312592 
	C508.513489,416.591827 509.733459,418.296692 511.387482,419.055603 
	C514.230896,420.360321 517.282959,421.578796 520.355347,421.957031 
	C542.795105,424.719299 565.198486,428.362061 587.732361,429.658295 
	C642.992493,432.837036 698.291931,432.550812 753.414612,426.798828 
	C766.089783,425.476166 778.607483,422.481201 791.113831,419.856354 
	C793.375671,419.381592 795.229004,416.960480 797.270935,415.437958 
	C795.192627,413.767303 793.347778,411.199005 790.994202,410.587097 
	C782.486206,408.375183 773.871216,406.375336 765.177246,405.126678 
	C753.169250,403.402039 741.053162,402.430878 729.006409,400.307770 
	C734.109863,377.035248 739.182678,353.755981 744.323914,330.491821 
	C752.250793,294.622223 760.100281,258.734436 768.334778,222.935364 
	C769.370117,218.434219 767.934021,216.079086 764.961548,213.551758 
	C757.891541,207.540527 750.822876,201.523727 743.892090,195.353607 
	C733.357849,185.975479 723.003357,176.394943 712.439941,167.050262 
	C708.776123,163.809158 704.717651,161.014114 700.541565,157.244751 
	C700.342712,151.604706 700.040710,145.965912 699.973328,140.324295 
	C699.902954,134.440857 697.400818,130.627365 692.083679,127.678177 
	C684.795227,123.635574 678.067017,118.582794 671.052734,113.081276 
	C670.260742,105.672020 668.563660,98.230728 673.204346,91.267319 
	C674.088562,89.940414 673.730652,87.785637 674.204712,85.222122 
	C674.471619,81.263580 674.921082,77.306992 674.963440,73.346054 
	C675.029968,67.121193 673.825256,65.944992 667.407776,65.317856 
	C666.426758,60.004173 662.646240,59.045376 657.846130,58.968445 
	C649.383362,58.832817 642.171570,62.653393 634.766785,65.797897 
	C632.249146,66.867035 631.895935,69.270477 633.781738,71.589050 
	C635.537598,73.747902 637.285095,75.913544 639.094788,78.868286 
M360.971680,227.465042 
	C363.761383,225.112198 366.551086,222.759369 369.267273,220.468536 
	C359.242371,208.972595 342.992432,208.147034 332.103333,217.613800 
	C321.125549,227.157669 319.967621,243.811127 329.518036,254.796616 
	C339.228973,265.966766 356.085693,267.003113 367.097137,257.288513 
	C377.469543,248.137711 378.504456,231.374146 370.676697,223.283066 
	C362.326813,231.804245 353.987488,240.314651 345.538361,248.937103 
	C342.114807,244.386398 338.742706,239.904053 335.160889,235.142944 
	C336.548065,234.069351 337.626282,233.234863 338.896454,232.251831 
	C341.492462,235.594254 343.815338,238.584991 346.697815,242.296249 
	C351.510834,237.288025 355.990448,232.626755 360.971680,227.465042 
M229.951828,222.550797 
	C233.732559,218.740555 237.513290,214.930298 241.209991,211.204758 
	C234.526337,203.406509 220.722061,204.885742 215.089294,211.487762 
	C209.427597,218.123672 209.979645,229.946838 216.137650,235.598328 
	C222.669403,241.592819 234.858795,241.632339 240.756546,235.678131 
	C246.749817,229.627502 247.771042,220.336075 242.379227,214.646530 
	C238.129730,219.045715 233.962616,223.516556 229.586685,227.772736 
	C228.569183,228.762405 225.922089,229.851837 225.587189,229.481689 
	C223.312103,226.967270 221.455566,224.074158 219.463837,221.303345 
	C219.993149,220.870972 220.522461,220.438599 221.051773,220.006226 
	C222.174805,221.019608 223.587067,221.850800 224.363052,223.082794 
	C226.207657,226.011414 227.762436,224.833298 229.951828,222.550797 
z"/>
<path fill="#F2F2F2" opacity="1.000000" stroke="none" 
	d="
M630.532288,386.012543 
	C622.611511,382.640656 614.599731,379.466156 606.786316,375.861542 
	C578.118408,362.636108 549.525635,349.248016 520.870605,335.994476 
	C518.802734,335.038055 516.462524,334.670563 513.853516,333.558350 
	C513.458069,310.525513 513.458069,287.963562 513.458069,265.296021 
	C483.192871,265.296021 453.496674,265.296021 423.493225,265.296021 
	C423.493225,273.743591 423.493225,281.887115 423.493225,290.030640 
	C419.786102,288.676422 415.974640,287.552032 412.390961,285.925781 
	C400.601715,280.575897 388.895050,275.044098 376.101166,269.091064 
	C433.117371,186.121597 489.811615,103.620667 546.927795,20.505655 
	C580.682190,50.486042 614.006348,80.084259 647.710815,110.061142 
	C648.091125,110.439796 648.181580,110.913536 647.908569,111.133728 
	C645.449768,113.018021 643.457581,115.079948 641.035583,116.258934 
	C636.714172,118.362495 632.265320,120.460930 627.634155,121.619354 
	C617.047363,124.267426 612.007568,131.848801 608.085754,141.159454 
	C602.733337,153.866638 597.032410,166.441422 591.013611,178.846237 
	C588.702759,183.608871 588.172363,187.567642 590.678650,192.442337 
	C592.654907,196.286163 594.287048,200.805435 594.310120,205.034302 
	C594.342041,210.899826 596.746460,214.700333 602.896362,215.388062 
	C609.621277,223.551224 616.219238,231.393463 622.895996,239.655273 
	C624.100403,249.317123 625.528625,258.534943 626.278320,267.807678 
	C627.310547,280.575989 628.105225,293.377014 628.511475,306.179596 
	C629.355835,332.785156 629.877808,359.400940 630.532288,386.012543 
M480.887512,207.263855 
	C474.745117,200.320297 464.507080,199.613739 457.281067,205.634720 
	C450.013092,211.690628 448.927002,222.361771 454.816833,229.845535 
	C460.613647,237.211090 471.326050,238.551865 478.976624,232.978333 
	C486.370453,227.591812 488.323669,215.859940 482.923370,209.402557 
	C482.230194,208.918945 481.537018,208.435349 480.887512,207.263855 
z"/>
<path fill="#302F42" opacity="1.000000" stroke="none" 
	d="
M630.649353,386.461121 
	C629.877808,359.400940 629.355835,332.785156 628.511475,306.179596 
	C628.105225,293.377014 627.310547,280.575989 626.278320,267.807678 
	C625.528625,258.534943 624.100403,249.317123 622.963989,239.176498 
	C623.286987,232.541031 623.620789,226.803879 624.033447,220.682770 
	C625.266174,216.586334 626.420166,212.873871 627.993774,209.171783 
	C646.577576,209.882874 664.741638,210.583603 683.015869,211.477539 
	C683.328369,211.904007 683.580933,212.050720 683.924927,212.463226 
	C685.292664,215.237625 686.619324,217.659683 688.089294,220.394363 
	C690.437012,224.472366 692.641418,228.237778 694.952393,232.368073 
	C695.677307,234.440979 696.499756,236.104660 696.882080,237.863998 
	C700.334961,253.752609 703.810425,269.637573 707.066406,285.567169 
	C708.653198,293.330475 711.360474,301.290466 710.850342,308.981689 
	C708.838501,339.312531 705.751953,369.572083 703.073608,400.214661 
	C706.563965,405.478577 711.164307,408.329865 717.257141,409.070953 
	C720.310730,409.442413 723.455994,410.355286 726.165466,411.775635 
	C727.787170,412.625763 728.646729,414.929779 729.848877,416.580322 
	C728.027344,417.388000 726.224670,418.839355 724.381042,418.893341 
	C715.839844,419.143341 707.284973,419.125336 698.739441,418.966522 
	C692.470032,418.850006 686.205994,418.104095 679.942444,418.140228 
	C675.856567,418.163788 674.992065,415.575195 675.137756,412.776581 
	C675.375854,408.202881 676.365845,403.668335 677.126587,398.679993 
	C678.656372,378.996490 679.610840,359.697571 681.684143,340.519592 
	C683.565979,323.113129 684.122070,306.253448 675.411316,290.172516 
	C672.275452,284.383392 670.584045,277.812958 668.218018,271.604950 
	C667.469360,269.640656 666.670410,267.695496 665.520996,264.801331 
	C664.686768,268.587311 664.097290,271.290771 663.495056,273.991394 
	C657.959534,298.816742 652.382141,323.563538 652.529236,349.301514 
	C652.623230,365.754425 651.022888,382.217041 650.132935,399.119293 
	C649.818237,403.504669 648.796387,407.588135 649.502441,411.347046 
	C650.192505,415.021454 649.678650,417.561554 646.831299,419.621918 
	C643.071106,422.342804 638.577148,423.315277 634.690674,421.000641 
	C632.703857,419.817352 631.744507,416.292725 631.081848,413.636444 
	C629.877869,408.810577 633.961548,403.837311 630.970215,398.931366 
	C630.902283,394.924133 630.834351,390.916901 630.649353,386.461121 
z"/>
<path fill="#FF6347" opacity="1.000000" stroke="none" 
	d="
M296.340210,415.298523 
	C296.395538,405.193695 296.450897,395.088898 296.518372,384.118011 
	C296.439087,381.136902 296.347595,379.021851 296.256134,376.906799 
	C296.376282,369.422394 296.579254,361.938232 296.600098,354.453522 
	C296.650696,336.292175 296.616547,318.130554 296.616547,299.969055 
	C296.616547,298.171722 296.616547,296.374390 296.616547,294.290161 
	C331.815979,294.290161 366.568298,294.290161 402.028351,294.290161 
	C402.028351,320.206543 402.028351,346.125641 402.014526,372.942627 
	C402.043243,375.887207 402.085785,377.933929 402.128326,379.980621 
	C402.094788,391.422455 402.061249,402.864319 402.047577,415.225098 
	C402.067444,418.925018 402.067444,421.706055 402.067444,424.599670 
	C366.658386,424.599670 331.841827,424.599670 296.972412,424.599670 
	C296.744232,421.242554 296.542206,418.270538 296.340210,415.298523 
M333.627808,383.000732 
	C330.735992,382.588806 329.299500,383.498810 329.561096,386.756683 
	C329.822113,390.006866 329.618347,393.294403 329.618347,396.606873 
	C343.102722,396.606873 355.964355,396.606873 368.724304,396.606873 
	C368.724304,391.943115 368.724304,387.675598 368.724304,383.000305 
	C357.170288,383.000305 345.886688,383.000305 333.627808,383.000732 
M333.500031,357.939697 
	C327.186646,357.940216 320.870605,357.847717 314.562500,358.030609 
	C313.481445,358.061920 312.434387,359.267731 311.371643,359.930969 
	C312.358765,360.527161 313.343750,361.639679 314.333344,361.643829 
	C337.592743,361.741089 360.852753,361.748444 384.111908,361.626923 
	C385.226898,361.621094 386.334900,360.283997 387.446167,359.566864 
	C387.205231,359.024445 386.964264,358.482056 386.723328,357.939667 
	C369.315552,357.939667 351.907776,357.939667 333.500031,357.939697 
M361.500000,370.277527 
	C346.214996,370.277527 330.929504,370.225128 315.645782,370.363525 
	C314.214569,370.376465 312.794281,371.594055 311.368927,372.252319 
	C312.825989,372.854950 314.280487,373.975586 315.740448,373.982727 
	C338.335144,374.093384 360.930511,374.064911 383.525696,374.043274 
	C384.634766,374.042206 385.743652,373.808380 386.852600,373.682953 
	C387.038208,373.166168 387.223846,372.649384 387.409454,372.132599 
	C386.084229,371.514709 384.771942,370.397308 383.431641,370.362701 
	C376.458344,370.182587 369.477936,370.278229 361.500000,370.277527 
M341.500000,325.060303 
	C356.581146,325.060303 371.662323,325.060303 386.743469,325.060303 
	C386.946777,324.445587 387.150085,323.830872 387.353424,323.216156 
	C385.933441,322.570038 384.516357,321.368317 383.093048,321.360901 
	C360.498444,321.242767 337.902893,321.247437 315.308197,321.355164 
	C313.993195,321.361420 312.683502,322.486572 311.371338,323.091064 
	C312.773834,323.747437 314.164642,324.941040 315.580719,324.971741 
	C323.883881,325.151855 332.192932,325.060303 341.500000,325.060303 
M357.500000,345.939697 
	C343.544128,345.939728 329.587708,345.884521 315.633209,346.023621 
	C314.206360,346.037842 312.791138,347.216827 311.370514,347.855347 
	C312.831238,348.477753 314.288849,349.633636 315.753143,349.642120 
	C336.187836,349.760803 356.623444,349.723114 377.058807,349.721924 
	C379.550873,349.721802 382.082214,349.966370 384.516785,349.589691 
	C385.571045,349.426605 386.425781,347.973602 387.371155,347.106537 
	C387.033569,346.717590 386.696014,346.328613 386.358459,345.939667 
	C377.072296,345.939667 367.786163,345.939667 357.500000,345.939697 
M335.500000,337.722473 
	C351.283417,337.722412 367.066895,337.734650 382.850250,337.708008 
	C385.016602,337.704346 387.920135,338.305969 386.514282,333.946442 
	C362.290985,333.946442 338.061188,333.929535 313.831787,334.018646 
	C313.008392,334.021667 312.188934,335.090546 311.367645,335.662598 
	C312.266663,336.347839 313.151489,337.604431 314.066925,337.627197 
	C320.874542,337.796448 327.688232,337.720856 335.500000,337.722473 
z"/>
<path fill="#F2F1F1" opacity="1.000000" stroke="none" 
	d="
M703.064209,399.858093 
	C705.751953,369.572083 708.838501,339.312531 710.850342,308.981689 
	C711.360474,301.290466 708.653198,293.330475 707.066406,285.567169 
	C703.810425,269.637573 700.334961,253.752609 696.882080,237.863998 
	C696.499756,236.104660 695.677307,234.440979 695.054199,231.992859 
	C695.816162,227.892227 696.582764,224.531723 697.699829,221.122971 
	C699.309143,217.775406 701.234619,214.556885 701.646973,211.154968 
	C702.095520,207.454437 700.846252,203.582474 700.860046,199.787186 
	C700.882874,193.493454 701.543213,187.200867 701.532654,180.908478 
	C701.519897,173.277054 701.089294,165.646347 700.839478,158.015320 
	C704.717651,161.014114 708.776123,163.809158 712.439941,167.050262 
	C723.003357,176.394943 733.357849,185.975479 743.892090,195.353607 
	C750.822876,201.523727 757.891541,207.540527 764.961548,213.551758 
	C767.934021,216.079086 769.370117,218.434219 768.334778,222.935364 
	C760.100281,258.734436 752.250793,294.622223 744.323914,330.491821 
	C739.182678,353.755981 734.109863,377.035248 728.534790,400.795410 
	C719.730164,400.808075 711.397217,400.333099 703.064209,399.858093 
z"/>
<path fill="#E6E5E5" opacity="1.000000" stroke="none" 
	d="
M295.869110,376.942871 
	C296.347595,379.021851 296.439087,381.136902 296.371277,383.682526 
	C263.390381,389.695404 230.267822,388.058716 197.244690,387.787781 
	C185.071854,387.687927 172.909256,385.371094 160.764160,383.884155 
	C158.886887,383.654297 157.129318,382.446625 154.929871,380.306519 
	C156.990295,379.362762 158.965485,377.984131 161.127808,377.560425 
	C166.636765,376.480927 172.229797,375.184631 177.788254,375.188873 
	C183.131165,375.192963 184.097794,373.147614 184.068146,368.382172 
	C183.887817,339.388550 183.978104,310.393280 183.978210,281.398560 
	C183.978226,278.899017 184.134857,276.387299 183.940536,273.903015 
	C183.695724,270.773285 185.057724,269.923279 188.022949,269.932190 
	C215.017792,270.013031 242.013382,270.052429 269.007629,269.901917 
	C273.100372,269.879089 273.054535,272.018036 273.050201,274.930573 
	C273.004242,305.924866 273.020691,336.919281 273.022827,367.913635 
	C273.023285,374.678162 273.040375,374.527405 279.738464,375.057404 
	C285.004059,375.474121 290.235474,376.322388 295.869110,376.942871 
M260.608276,319.602081 
	C258.820496,319.070892 257.035645,318.089752 255.244522,318.078156 
	C237.456818,317.963196 219.668091,318.003693 201.879669,318.018433 
	C200.558258,318.019501 199.192963,317.989349 197.934631,318.311707 
	C197.324982,318.467865 196.528290,319.405823 196.525482,319.993225 
	C196.522659,320.579071 197.305649,321.492462 197.924301,321.685791 
	C198.998535,322.021545 200.211456,321.980408 201.366318,321.981323 
	C219.487244,321.995605 237.608414,322.031494 255.728699,321.922821 
	C257.356842,321.913086 258.979187,320.940674 260.608276,319.602081 
M225.500000,339.008545 
	C217.336731,339.008606 209.171341,338.913300 201.012039,339.093109 
	C199.467773,339.127136 197.947571,340.253754 196.416260,340.876251 
	C197.865067,341.581116 199.309341,342.888550 200.763351,342.899445 
	C219.254623,343.038239 237.747635,343.038239 256.238892,342.899323 
	C257.692200,342.888367 259.135773,341.579651 260.583862,340.874084 
	C259.051819,340.252319 257.528320,339.117859 255.986343,339.092163 
	C246.159836,338.928192 236.329239,339.008606 225.500000,339.008545 
M232.500000,328.999695 
	C228.509003,328.999695 224.518005,328.999725 220.527008,328.999725 
	C216.369720,328.999725 212.211304,328.939819 208.055481,329.017731 
	C204.422043,329.085846 200.791489,329.308990 197.159668,329.463623 
	C197.215118,329.925385 197.270584,330.387115 197.326050,330.848877 
	C201.951187,332.852509 257.014954,332.448486 259.792786,328.999695 
	C251.028519,328.999695 242.264252,328.999695 232.500000,328.999695 
M250.448547,311.000305 
	C253.582932,310.812988 256.717316,310.625702 259.851685,310.438385 
	C254.988403,307.133026 199.948395,307.557587 197.221817,311.000305 
	C214.635941,311.000305 232.050079,311.000305 250.448547,311.000305 
z"/>
<path fill="#FF6448" opacity="1.000000" stroke="none" 
	d="
M700.690552,157.630035 
	C701.089294,165.646347 701.519897,173.277054 701.532654,180.908478 
	C701.543213,187.200867 700.882874,193.493454 700.860046,199.787186 
	C700.846252,203.582474 702.095520,207.454437 701.646973,211.154968 
	C701.234619,214.556885 699.309143,217.775406 697.551758,220.736603 
	C694.017517,220.292908 690.981750,220.187317 687.945984,220.081757 
	C686.619324,217.659683 685.292664,215.237625 683.950256,212.027344 
	C683.934509,202.823074 683.934509,194.407013 683.934509,185.990952 
	C683.591614,185.991760 683.248657,185.992584 682.905762,185.993393 
	C682.905762,194.423706 682.905762,202.854019 682.905762,211.284332 
	C664.741638,210.583603 646.577576,209.882874 627.777588,208.838974 
	C627.195312,206.968140 627.552551,205.374680 627.238647,203.926697 
	C626.610046,201.027344 625.237122,198.259079 624.839417,195.345520 
	C623.552002,185.915787 622.567139,176.444733 621.412231,166.530487 
	C619.056213,169.359207 616.929504,171.866776 614.852478,174.414902 
	C608.175598,182.606064 608.544678,192.694733 615.292358,201.145416 
	C617.437927,203.832458 619.781860,207.233063 616.166870,210.973419 
	C611.462891,212.357788 607.116089,213.712463 602.769287,215.067139 
	C596.746460,214.700333 594.342041,210.899826 594.310120,205.034302 
	C594.287048,200.805435 592.654907,196.286163 590.678650,192.442337 
	C588.172363,187.567642 588.702759,183.608871 591.013611,178.846237 
	C597.032410,166.441422 602.733337,153.866638 608.085754,141.159454 
	C612.007568,131.848801 617.047363,124.267426 627.634155,121.619354 
	C632.265320,120.460930 636.714172,118.362495 641.035583,116.258934 
	C643.457581,115.079948 645.449768,113.018021 648.202820,111.289474 
	C653.580566,114.846275 658.391052,118.467514 663.401245,122.239059 
	C666.175354,119.256462 668.637024,116.609703 671.098755,113.962936 
	C678.067017,118.582794 684.795227,123.635574 692.083679,127.678177 
	C697.400818,130.627365 699.902954,134.440857 699.973328,140.324295 
	C700.040710,145.965912 700.342712,151.604706 700.690552,157.630035 
z"/>
<path fill="#434159" opacity="1.000000" stroke="none" 
	d="
M423.488190,290.496338 
	C423.493225,281.887115 423.493225,273.743591 423.493225,265.296021 
	C453.496674,265.296021 483.192871,265.296021 513.458069,265.296021 
	C513.458069,287.963562 513.458069,310.525513 513.484985,333.556702 
	C513.518250,345.667297 513.524658,357.308655 513.491211,369.844727 
	C513.302612,372.491577 513.153809,374.243774 513.004211,376.005035 
	C483.067627,376.005035 453.589081,376.005035 424.009247,376.005035 
	C423.732269,373.735138 423.494751,371.788391 423.257233,369.841644 
	C423.332550,343.548431 423.407837,317.255249 423.488190,290.496338 
M436.925812,280.037964 
	C436.512695,280.269287 435.744720,280.490753 435.738007,280.733368 
	C435.536377,287.998535 435.346954,295.266083 435.381439,302.532196 
	C435.384460,303.170959 436.916595,304.329651 437.762726,304.352570 
	C443.675262,304.512756 449.594208,304.437317 454.971375,304.437317 
	C454.971375,295.953857 454.971375,288.215912 454.971375,280.008057 
	C449.752655,280.008057 443.809479,280.008057 436.925812,280.037964 
M500.185089,358.533203 
	C499.558380,358.361511 498.931885,358.040710 498.304932,358.039764 
	C478.858582,358.010895 459.412018,357.985291 439.966156,358.084595 
	C438.871246,358.090179 437.781769,359.162476 436.689728,359.738251 
	C437.776703,360.155212 438.862274,360.931580 439.950836,360.935760 
	C459.064514,361.009552 478.178680,361.011871 497.292297,360.925446 
	C498.314178,360.920837 499.331879,359.995575 500.185089,358.533203 
M461.500000,329.989899 
	C474.403137,329.989899 487.306274,329.989899 500.209412,329.989899 
	C500.349457,329.506073 500.489502,329.022247 500.629578,328.538422 
	C499.648621,328.030121 498.669647,327.082794 497.686432,327.078400 
	C478.243561,326.991241 458.800079,326.991577 439.357178,327.076141 
	C438.362000,327.080444 437.370819,327.998932 436.377777,328.491821 
	C436.510651,328.991180 436.643524,329.490540 436.776398,329.989899 
	C444.684265,329.989899 452.592133,329.989899 461.500000,329.989899 
M488.484985,340.439270 
	C492.355347,340.403412 496.225677,340.367584 500.096039,340.331726 
	C500.057587,339.839691 500.019104,339.347626 499.980652,338.855591 
	C496.121063,336.767944 439.104370,337.028442 436.114807,340.439514 
	C453.240265,340.439514 470.365723,340.439514 488.484985,340.439270 
M500.200958,348.486725 
	C499.476440,348.185883 498.752594,347.624084 498.027313,347.622223 
	C478.426270,347.572418 458.825073,347.565826 439.224060,347.624084 
	C438.340973,347.626709 437.459900,348.304047 436.577881,348.667114 
	C436.620422,349.089050 436.662994,349.510986 436.705566,349.932922 
	C438.047302,350.101379 439.388824,350.414215 440.730835,350.416534 
	C459.335388,350.448608 477.940125,350.455658 496.544556,350.398041 
	C497.765961,350.394257 498.985596,349.816498 500.200958,348.486725 
M497.347900,282.560760 
	C491.860077,282.560760 486.372040,282.529633 480.884491,282.569611 
	C475.506256,282.608826 470.128540,282.720398 464.750610,282.800171 
	C464.789886,283.375916 464.829163,283.951630 464.868439,284.527374 
	C477.194366,284.527374 489.520325,284.527374 501.846252,284.527374 
	C501.903595,284.093658 501.960938,283.659912 502.018280,283.226196 
	C500.781128,283.004425 499.544006,282.782684 497.347900,282.560760 
M493.452118,311.439301 
	C496.285797,311.381775 499.119476,311.324280 501.953156,311.266785 
	C501.914490,310.684113 501.875793,310.101471 501.837097,309.518799 
	C489.512970,309.518799 477.188843,309.518799 464.864685,309.518799 
	C464.842896,310.159027 464.821075,310.799286 464.799255,311.439514 
	C474.019745,311.439514 483.240204,311.439514 493.452118,311.439301 
M474.533020,300.010101 
	C471.294067,300.010101 468.055084,300.010101 464.816132,300.010101 
	C464.838440,300.590942 464.860748,301.171783 464.883057,301.752625 
	C477.203369,301.752625 489.523682,301.752625 501.843994,301.752625 
	C501.855774,301.171783 501.867554,300.590942 501.879333,300.010101 
	C493.093414,300.010101 484.307465,300.010101 474.533020,300.010101 
M491.468567,293.989899 
	C494.939423,293.989899 498.410248,293.989899 501.881104,293.989899 
	C498.285767,290.738556 467.491150,290.977386 463.979919,293.989899 
	C473.386597,293.989899 481.930878,293.989899 491.468567,293.989899 
z"/>
<path fill="#413F58" opacity="1.000000" stroke="none" 
	d="
M703.073608,400.214661 
	C711.397217,400.333099 719.730164,400.808075 728.523254,401.210052 
	C741.053162,402.430878 753.169250,403.402039 765.177246,405.126678 
	C773.871216,406.375336 782.486206,408.375183 790.994202,410.587097 
	C793.347778,411.199005 795.192627,413.767303 797.270935,415.437958 
	C795.229004,416.960480 793.375671,419.381592 791.113831,419.856354 
	C778.607483,422.481201 766.089783,425.476166 753.414612,426.798828 
	C698.291931,432.550812 642.992493,432.837036 587.732361,429.658295 
	C565.198486,428.362061 542.795105,424.719299 520.355347,421.957031 
	C517.282959,421.578796 514.230896,420.360321 511.387482,419.055603 
	C509.733459,418.296692 508.513489,416.591827 507.098206,415.312561 
	C508.469849,413.990631 509.630737,411.941589 511.249634,411.472260 
	C518.411682,409.395782 525.621582,407.246429 532.965942,406.077545 
	C565.114014,400.960968 597.587891,400.028564 630.510986,399.018799 
	C633.961548,403.837311 629.877869,408.810577 631.081848,413.636444 
	C631.744507,416.292725 632.703857,419.817352 634.690674,421.000641 
	C638.577148,423.315277 643.071106,422.342804 646.831299,419.621918 
	C649.678650,417.561554 650.192505,415.021454 649.502441,411.347046 
	C648.796387,407.588135 649.818237,403.504669 650.578003,399.230988 
	C659.727722,398.971527 668.383240,399.044403 677.038696,399.117279 
	C676.365845,403.668335 675.375854,408.202881 675.137756,412.776581 
	C674.992065,415.575195 675.856567,418.163788 679.942444,418.140228 
	C686.205994,418.104095 692.470032,418.850006 698.739441,418.966522 
	C707.284973,419.125336 715.839844,419.143341 724.381042,418.893341 
	C726.224670,418.839355 728.027344,417.388000 729.848877,416.580322 
	C728.646729,414.929779 727.787170,412.625763 726.165466,411.775635 
	C723.455994,410.355286 720.310730,409.442413 717.257141,409.070953 
	C711.164307,408.329865 706.563965,405.478577 703.073608,400.214661 
z"/>
<path fill="#FF664A" opacity="1.000000" stroke="none" 
	d="
M360.720856,227.715271 
	C355.990448,232.626755 351.510834,237.288025 346.697815,242.296249 
	C343.815338,238.584991 341.492462,235.594254 338.896454,232.251831 
	C337.626282,233.234863 336.548065,234.069351 335.160889,235.142944 
	C338.742706,239.904053 342.114807,244.386398 345.538361,248.937103 
	C353.987488,240.314651 362.326813,231.804245 370.676697,223.283066 
	C378.504456,231.374146 377.469543,248.137711 367.097137,257.288513 
	C356.085693,267.003113 339.228973,265.966766 329.518036,254.796616 
	C319.967621,243.811127 321.125549,227.157669 332.103333,217.613800 
	C342.992432,208.147034 359.242371,208.972595 369.267273,220.468536 
	C366.551086,222.759369 363.761383,225.112198 360.720856,227.715271 
z"/>
<path fill="#434159" opacity="1.000000" stroke="none" 
	d="
M295.982483,415.345215 
	C296.542206,418.270538 296.744232,421.242554 296.972412,424.599670 
	C331.841827,424.599670 366.658386,424.599670 402.067444,424.599670 
	C402.067444,421.706055 402.067444,418.925018 402.110565,415.707031 
	C413.675964,416.716309 425.529053,416.579681 436.327545,421.489105 
	C436.398773,422.100983 436.470001,422.712860 436.541229,423.324738 
	C434.219452,424.222260 431.959747,425.651611 429.565857,425.930908 
	C414.223145,427.721008 398.859894,430.508240 383.486664,430.617981 
	C351.905609,430.843445 320.309937,429.732910 288.730133,428.829010 
	C282.306030,428.645111 275.899139,427.085999 269.538300,425.876831 
	C267.231567,425.438354 265.082672,424.169464 262.927216,422.560913 
	C273.191498,416.514343 284.637299,416.995667 295.982483,415.345215 
z"/>
<path fill="#D5D5D7" opacity="1.000000" stroke="none" 
	d="
M422.869690,369.914734 
	C423.494751,371.788391 423.732269,373.735138 424.009247,376.005035 
	C453.589081,376.005035 483.067627,376.005035 513.004211,376.005035 
	C513.153809,374.243774 513.302612,372.491577 513.596802,370.288971 
	C521.752625,371.054932 529.784363,372.153168 537.754150,373.593933 
	C539.233521,373.861328 540.463440,375.508423 541.808472,376.518799 
	C540.480225,377.334869 539.235962,378.642914 537.809875,378.886444 
	C529.174805,380.361237 520.527771,382.438599 511.829773,382.742462 
	C488.556152,383.555542 465.246552,384.080780 441.967529,383.707733 
	C428.947327,383.499115 415.959442,381.276215 402.542664,379.970764 
	C402.085785,377.933929 402.043243,375.887207 402.070312,373.406586 
	C408.920654,371.977722 415.701416,370.982788 422.869690,369.914734 
z"/>
<path fill="#A0626B" opacity="1.000000" stroke="none" 
	d="
M671.075745,113.522110 
	C668.637024,116.609703 666.175354,119.256462 663.401245,122.239059 
	C658.391052,118.467514 653.580566,114.846275 648.475830,111.069283 
	C648.181580,110.913536 648.091125,110.439796 648.000183,110.216476 
	C648.334656,105.943726 647.110901,102.958313 643.740112,100.161453 
	C636.882202,94.471382 636.451050,86.888351 639.347961,78.277489 
	C640.827148,76.832184 642.001648,75.889565 643.287720,75.137779 
	C650.478394,70.934303 656.399414,72.361359 660.828064,79.160614 
	C663.059082,82.585815 664.948975,86.731285 670.520996,84.447014 
	C671.315186,84.121429 672.787415,85.449890 673.945862,86.012817 
	C673.730652,87.785637 674.088562,89.940414 673.204346,91.267319 
	C668.563660,98.230728 670.260742,105.672020 671.075745,113.522110 
z"/>
<path fill="#E7E7E7" opacity="1.000000" stroke="none" 
	d="
M229.696045,222.805206 
	C227.762436,224.833298 226.207657,226.011414 224.363052,223.082794 
	C223.587067,221.850800 222.174805,221.019608 221.051773,220.006226 
	C220.522461,220.438599 219.993149,220.870972 219.463837,221.303345 
	C221.455566,224.074158 223.312103,226.967270 225.587189,229.481689 
	C225.922089,229.851837 228.569183,228.762405 229.586685,227.772736 
	C233.962616,223.516556 238.129730,219.045715 242.379227,214.646530 
	C247.771042,220.336075 246.749817,229.627502 240.756546,235.678131 
	C234.858795,241.632339 222.669403,241.592819 216.137650,235.598328 
	C209.979645,229.946838 209.427597,218.123672 215.089294,211.487762 
	C220.722061,204.885742 234.526337,203.406509 241.209991,211.204758 
	C237.513290,214.930298 233.732559,218.740555 229.696045,222.805206 
z"/>
<path fill="#333244" opacity="1.000000" stroke="none" 
	d="
M674.075317,85.617470 
	C672.787415,85.449890 671.315186,84.121429 670.520996,84.447014 
	C664.948975,86.731285 663.059082,82.585815 660.828064,79.160614 
	C656.399414,72.361359 650.478394,70.934303 643.287720,75.137779 
	C642.001648,75.889565 640.827148,76.832184 639.318726,77.881439 
	C637.285095,75.913544 635.537598,73.747902 633.781738,71.589050 
	C631.895935,69.270477 632.249146,66.867035 634.766785,65.797897 
	C642.171570,62.653393 649.383362,58.832817 657.846130,58.968445 
	C662.646240,59.045376 666.426758,60.004173 667.407776,65.317856 
	C673.825256,65.944992 675.029968,67.121193 674.963440,73.346054 
	C674.921082,77.306992 674.471619,81.263580 674.075317,85.617470 
z"/>
<path fill="#434159" opacity="1.000000" stroke="none" 
	d="
M483.025574,210.088867 
	C488.323669,215.859940 486.370453,227.591812 478.976624,232.978333 
	C471.326050,238.551865 460.613647,237.211090 454.816833,229.845535 
	C448.927002,222.361771 450.013092,211.690628 457.281067,205.634720 
	C464.507080,199.613739 474.745117,200.320297 480.561646,207.733948 
	C475.720490,212.698029 471.205231,217.192017 467.071472,221.306274 
	C463.789429,220.220627 463.856720,214.692703 458.814667,217.247360 
	C461.450562,220.692139 463.748505,223.695297 466.090607,226.756134 
	C471.926514,221.012512 477.476044,215.550705 483.025574,210.088867 
z"/>
<path fill="#A2636C" opacity="1.000000" stroke="none" 
	d="
M602.896362,215.388062 
	C607.116089,213.712463 611.462891,212.357788 616.344543,211.296021 
	C619.237793,214.748169 621.596191,217.907440 623.954590,221.066711 
	C623.620789,226.803879 623.286987,232.541031 622.885193,238.756958 
	C616.219238,231.393463 609.621277,223.551224 602.896362,215.388062 
z"/>
<path fill="#EEEEF0" opacity="1.000000" stroke="none" 
	d="
M482.974487,209.745728 
	C477.476044,215.550705 471.926514,221.012512 466.090607,226.756134 
	C463.748505,223.695297 461.450562,220.692139 458.814667,217.247360 
	C463.856720,214.692703 463.789429,220.220627 467.071472,221.306274 
	C471.205231,217.192017 475.720490,212.698029 480.539795,208.077881 
	C481.537018,208.435349 482.230194,208.918945 482.974487,209.745728 
z"/>
<path fill="#F0F0F0" opacity="1.000000" stroke="none" 
	d="
M677.126587,398.679993 
	C668.383240,399.044403 659.727722,398.971527 650.627197,398.786987 
	C651.022888,382.217041 652.623230,365.754425 652.529236,349.301514 
	C652.382141,323.563538 657.959534,298.816742 663.495056,273.991394 
	C664.097290,271.290771 664.686768,268.587311 665.520996,264.801331 
	C666.670410,267.695496 667.469360,269.640656 668.218018,271.604950 
	C670.584045,277.812958 672.275452,284.383392 675.411316,290.172516 
	C684.122070,306.253448 683.565979,323.113129 681.684143,340.519592 
	C679.610840,359.697571 678.656372,378.996490 677.126587,398.679993 
z"/>
<path fill="#F2EEED" opacity="1.000000" stroke="none" 
	d="
M624.033447,220.682755 
	C621.596191,217.907440 619.237793,214.748169 616.701721,211.266312 
	C619.781860,207.233063 617.437927,203.832458 615.292358,201.145416 
	C608.544678,192.694733 608.175598,182.606064 614.852478,174.414902 
	C616.929504,171.866776 619.056213,169.359207 621.412231,166.530487 
	C622.567139,176.444733 623.552002,185.915787 624.839417,195.345520 
	C625.237122,198.259079 626.610046,201.027344 627.238647,203.926697 
	C627.552551,205.374680 627.195312,206.968140 627.357910,208.828613 
	C626.420166,212.873871 625.266174,216.586334 624.033447,220.682755 
z"/>
<path fill="#A0626B" opacity="1.000000" stroke="none" 
	d="
M688.089294,220.394348 
	C690.981750,220.187317 694.017517,220.292908 697.201294,220.784851 
	C696.582764,224.531723 695.816162,227.892227 694.947693,231.627960 
	C692.641418,228.237778 690.437012,224.472366 688.089294,220.394348 
z"/>
<path fill="#F7A799" opacity="1.000000" stroke="none" 
	d="
M683.015869,211.477539 
	C682.905762,202.854019 682.905762,194.423706 682.905762,185.993393 
	C683.248657,185.992584 683.591614,185.991760 683.934509,185.990952 
	C683.934509,194.407013 683.934509,202.823074 683.909180,211.675003 
	C683.580933,212.050720 683.328369,211.904007 683.015869,211.477539 
z"/>
<path fill="#FFFFFF" opacity="1.000000" stroke="none" 
	d="
M334.115448,383.000519 
	C345.886688,383.000305 357.170288,383.000305 368.724304,383.000305 
	C368.724304,387.675598 368.724304,391.943115 368.724304,396.606873 
	C355.964355,396.606873 343.102722,396.606873 329.618347,396.606873 
	C329.618347,393.294403 329.822113,390.006866 329.561096,386.756683 
	C329.299500,383.498810 330.735992,382.588806 334.115448,383.000519 
z"/>
<path fill="#FFEBE7" opacity="1.000000" stroke="none" 
	d="
M334.000000,357.939697 
	C351.907776,357.939667 369.315552,357.939667 386.723328,357.939667 
	C386.964264,358.482056 387.205231,359.024445 387.446167,359.566864 
	C386.334900,360.283997 385.226898,361.621094 384.111908,361.626923 
	C360.852753,361.748444 337.592743,361.741089 314.333344,361.643829 
	C313.343750,361.639679 312.358765,360.527161 311.371643,359.930969 
	C312.434387,359.267731 313.481445,358.061920 314.562500,358.030609 
	C320.870605,357.847717 327.186646,357.940216 334.000000,357.939697 
z"/>
<path fill="#FFEBE7" opacity="1.000000" stroke="none" 
	d="
M362.000000,370.277710 
	C369.477936,370.278229 376.458344,370.182587 383.431641,370.362701 
	C384.771942,370.397308 386.084229,371.514709 387.409454,372.132599 
	C387.223846,372.649384 387.038208,373.166168 386.852600,373.682953 
	C385.743652,373.808380 384.634766,374.042206 383.525696,374.043274 
	C360.930511,374.064911 338.335144,374.093384 315.740448,373.982727 
	C314.280487,373.975586 312.825989,372.854950 311.368927,372.252319 
	C312.794281,371.594055 314.214569,370.376465 315.645782,370.363525 
	C330.929504,370.225128 346.214996,370.277527 362.000000,370.277710 
z"/>
<path fill="#FFEBE7" opacity="1.000000" stroke="none" 
	d="
M341.000000,325.060303 
	C332.192932,325.060303 323.883881,325.151855 315.580719,324.971741 
	C314.164642,324.941040 312.773834,323.747437 311.371338,323.091064 
	C312.683502,322.486572 313.993195,321.361420 315.308197,321.355164 
	C337.902893,321.247437 360.498444,321.242767 383.093048,321.360901 
	C384.516357,321.368317 385.933441,322.570038 387.353424,323.216156 
	C387.150085,323.830872 386.946777,324.445587 386.743469,325.060303 
	C371.662323,325.060303 356.581146,325.060303 341.000000,325.060303 
z"/>
<path fill="#FFEBE7" opacity="1.000000" stroke="none" 
	d="
M358.000000,345.939697 
	C367.786163,345.939667 377.072296,345.939667 386.358459,345.939667 
	C386.696014,346.328613 387.033569,346.717590 387.371155,347.106537 
	C386.425781,347.973602 385.571045,349.426605 384.516785,349.589691 
	C382.082214,349.966370 379.550873,349.721802 377.058807,349.721924 
	C356.623444,349.723114 336.187836,349.760803 315.753143,349.642120 
	C314.288849,349.633636 312.831238,348.477753 311.370514,347.855347 
	C312.791138,347.216827 314.206360,346.037842 315.633209,346.023621 
	C329.587708,345.884521 343.544128,345.939728 358.000000,345.939697 
z"/>
<path fill="#FFEBE7" opacity="1.000000" stroke="none" 
	d="
M335.000000,337.722290 
	C327.688232,337.720856 320.874542,337.796448 314.066925,337.627197 
	C313.151489,337.604431 312.266663,336.347839 311.367645,335.662598 
	C312.188934,335.090546 313.008392,334.021667 313.831787,334.018646 
	C338.061188,333.929535 362.290985,333.946442 386.514282,333.946442 
	C387.920135,338.305969 385.016602,337.704346 382.850250,337.708008 
	C367.066895,337.734650 351.283417,337.722412 335.000000,337.722290 
z"/>
<path fill="#F8F8F8" opacity="1.000000" stroke="none" 
	d="
M260.606262,320.008728 
	C258.979187,320.940674 257.356842,321.913086 255.728699,321.922821 
	C237.608414,322.031494 219.487244,321.995605 201.366318,321.981323 
	C200.211456,321.980408 198.998535,322.021545 197.924301,321.685791 
	C197.305649,321.492462 196.522659,320.579071 196.525482,319.993225 
	C196.528290,319.405823 197.324982,318.467865 197.934631,318.311707 
	C199.192963,317.989349 200.558258,318.019501 201.879669,318.018433 
	C219.668091,318.003693 237.456818,317.963196 255.244522,318.078156 
	C257.035645,318.089752 258.820496,319.070892 260.606262,320.008728 
z"/>
<path fill="#F8F8F8" opacity="1.000000" stroke="none" 
	d="
M226.000000,339.008545 
	C236.329239,339.008606 246.159836,338.928192 255.986343,339.092163 
	C257.528320,339.117859 259.051819,340.252319 260.583862,340.874084 
	C259.135773,341.579651 257.692200,342.888367 256.238892,342.899323 
	C237.747635,343.038239 219.254623,343.038239 200.763351,342.899445 
	C199.309341,342.888550 197.865067,341.581116 196.416260,340.876251 
	C197.947571,340.253754 199.467773,339.127136 201.012039,339.093109 
	C209.171341,338.913300 217.336731,339.008606 226.000000,339.008545 
z"/>
<path fill="#FFFFFF" opacity="1.000000" stroke="none" 
	d="
M233.000000,328.999695 
	C242.264252,328.999695 251.028519,328.999695 259.792786,328.999695 
	C257.014954,332.448486 201.951187,332.852509 197.326050,330.848877 
	C197.270584,330.387115 197.215118,329.925385 197.159668,329.463623 
	C200.791489,329.308990 204.422043,329.085846 208.055481,329.017731 
	C212.211304,328.939819 216.369720,328.999725 220.527008,328.999725 
	C224.518005,328.999725 228.509003,328.999695 233.000000,328.999695 
z"/>
<path fill="#FFFFFF" opacity="1.000000" stroke="none" 
	d="
M249.956375,311.000305 
	C232.050079,311.000305 214.635941,311.000305 197.221817,311.000305 
	C199.948395,307.557587 254.988403,307.133026 259.851685,310.438385 
	C256.717316,310.625702 253.582932,310.812988 249.956375,311.000305 
z"/>
<path fill="#FDFDFD" opacity="1.000000" stroke="none" 
	d="
M437.396057,280.023010 
	C443.809479,280.008057 449.752655,280.008057 454.971375,280.008057 
	C454.971375,288.215912 454.971375,295.953857 454.971375,304.437317 
	C449.594208,304.437317 443.675262,304.512756 437.762726,304.352570 
	C436.916595,304.329651 435.384460,303.170959 435.381439,302.532196 
	C435.346954,295.266083 435.536377,287.998535 435.738007,280.733368 
	C435.744720,280.490753 436.512695,280.269287 437.396057,280.023010 
z"/>
<path fill="#FFFFFF" opacity="1.000000" stroke="none" 
	d="
M500.268311,359.016052 
	C499.331879,359.995575 498.314178,360.920837 497.292297,360.925446 
	C478.178680,361.011871 459.064514,361.009552 439.950836,360.935760 
	C438.862274,360.931580 437.776703,360.155212 436.689728,359.738281 
	C437.781769,359.162476 438.871246,358.090179 439.966156,358.084595 
	C459.412018,357.985291 478.858582,358.010895 498.304932,358.039764 
	C498.931885,358.040710 499.558380,358.361511 500.268311,359.016052 
z"/>
<path fill="#FFFFFF" opacity="1.000000" stroke="none" 
	d="
M461.000000,329.989899 
	C452.592133,329.989899 444.684265,329.989899 436.776398,329.989899 
	C436.643524,329.490540 436.510651,328.991180 436.377777,328.491821 
	C437.370819,327.998932 438.362000,327.080444 439.357178,327.076141 
	C458.800079,326.991577 478.243561,326.991241 497.686432,327.078400 
	C498.669647,327.082794 499.648621,328.030121 500.629578,328.538422 
	C500.489502,329.022247 500.349457,329.506073 500.209412,329.989899 
	C487.306274,329.989899 474.403137,329.989899 461.000000,329.989899 
z"/>
<path fill="#FFFFFF" opacity="1.000000" stroke="none" 
	d="
M487.988098,340.439392 
	C470.365723,340.439514 453.240265,340.439514 436.114807,340.439514 
	C439.104370,337.028442 496.121063,336.767944 499.980652,338.855591 
	C500.019104,339.347626 500.057587,339.839691 500.096039,340.331726 
	C496.225677,340.367584 492.355347,340.403412 487.988098,340.439392 
z"/>
<path fill="#FFFFFF" opacity="1.000000" stroke="none" 
	d="
M500.203491,348.996216 
	C498.985596,349.816498 497.765961,350.394257 496.544556,350.398041 
	C477.940125,350.455658 459.335388,350.448608 440.730835,350.416534 
	C439.388824,350.414215 438.047302,350.101379 436.705566,349.932922 
	C436.662994,349.510986 436.620422,349.089050 436.577881,348.667114 
	C437.459900,348.304047 438.340973,347.626709 439.224060,347.624084 
	C458.825073,347.565826 478.426270,347.572418 498.027313,347.622223 
	C498.752594,347.624084 499.476440,348.185883 500.203491,348.996216 
z"/>
<path fill="#FFFFFF" opacity="1.000000" stroke="none" 
	d="
M497.827393,282.560852 
	C499.544006,282.782684 500.781128,283.004425 502.018280,283.226196 
	C501.960938,283.659912 501.903595,284.093658 501.846252,284.527374 
	C489.520325,284.527374 477.194366,284.527374 464.868439,284.527374 
	C464.829163,283.951630 464.789886,283.375916 464.750610,282.800171 
	C470.128540,282.720398 475.506256,282.608826 480.884491,282.569611 
	C486.372040,282.529633 491.860077,282.560760 497.827393,282.560852 
z"/>
<path fill="#FFFFFF" opacity="1.000000" stroke="none" 
	d="
M492.956390,311.439392 
	C483.240204,311.439514 474.019745,311.439514 464.799255,311.439514 
	C464.821075,310.799286 464.842896,310.159027 464.864685,309.518799 
	C477.188843,309.518799 489.512970,309.518799 501.837097,309.518799 
	C501.875793,310.101471 501.914490,310.684113 501.953156,311.266785 
	C499.119476,311.324280 496.285797,311.381775 492.956390,311.439392 
z"/>
<path fill="#FFFFFF" opacity="1.000000" stroke="none" 
	d="
M475.027283,300.010101 
	C484.307465,300.010101 493.093414,300.010101 501.879333,300.010101 
	C501.867554,300.590942 501.855774,301.171783 501.843994,301.752625 
	C489.523682,301.752625 477.203369,301.752625 464.883057,301.752625 
	C464.860748,301.171783 464.838440,300.590942 464.816132,300.010101 
	C468.055084,300.010101 471.294067,300.010101 475.027283,300.010101 
z"/>
<path fill="#FFFFFF" opacity="1.000000" stroke="none" 
	d="
M490.971863,293.989899 
	C481.930878,293.989899 473.386597,293.989899 463.979919,293.989899 
	C467.491150,290.977386 498.285767,290.738556 501.881104,293.989899 
	C498.410248,293.989899 494.939423,293.989899 490.971863,293.989899 
z"/>
</svg>