<?xml version="1.0" standalone="no"?>
<!DOCTYPE svg PUBLIC "-//W3C//DTD SVG 20010904//EN"
 "http://www.w3.org/TR/2001/REC-SVG-20010904/DTD/svg10.dtd">
<svg version="1.0" xmlns="http://www.w3.org/2000/svg"
 width="200.000000pt" height="200.000000pt" viewBox="0 0 200.000000 200.000000"
 preserveAspectRatio="xMidYMid meet">
<metadata>
Created by potrace 1.16, written by Peter Selinger 2001-2019
</metadata>
<g transform="translate(0.000000,200.000000) scale(0.100000,-0.100000)"
fill="#000000" stroke="none">
<path d="M1332 1497 l-43 -23 66 -49 65 -49 0 -83 0 -83 -44 0 c-35 0 -47 -5
-60 -25 -9 -13 -16 -26 -16 -28 0 -2 18 -4 39 -4 29 0 38 3 34 13 -4 10 4 14
26 14 l31 0 0 -65 c0 -51 -3 -65 -15 -65 -8 0 -15 -7 -15 -15 0 -11 11 -15 40
-15 29 0 40 4 40 15 0 8 -4 15 -10 15 -6 0 -10 28 -10 65 l0 65 31 0 c27 0 30
-2 19 -15 -10 -12 -10 -15 2 -15 8 0 19 5 26 12 9 9 12 9 12 0 0 -7 9 -12 21
-12 l20 0 -21 29 c-17 25 -29 30 -68 33 l-47 3 33 18 32 18 0 88 0 88 -60 46
c-33 26 -66 47 -73 47 -6 -1 -31 -11 -55 -23z"/>
<path d="M435 1298 c-3 -8 -4 -79 -3 -158 l3 -145 130 0 130 0 0 80 0 80 -47
3 -48 3 0 -45 c0 -44 -1 -46 -30 -46 l-29 0 -3 118 -3 117 -48 3 c-33 2 -49
-1 -52 -10z"/>
<path d="M750 1150 l0 -160 120 0 120 0 0 40 0 40 -70 0 c-63 0 -70 2 -70 20
0 17 7 20 50 20 l50 0 0 40 0 40 -50 0 c-38 0 -50 4 -50 15 0 12 13 15 58 15
72 0 84 8 80 51 l-3 34 -117 3 -118 3 0 -161z"/>
<path d="M1034 1296 c-3 -8 -4 -27 -2 -43 2 -22 9 -29 31 -31 27 -3 27 -4 27
-78 l0 -74 -31 0 c-30 0 -30 -1 -28 -43 2 -24 0 -48 -4 -54 -10 -16 3 -23 45
-23 31 0 38 3 38 20 0 18 7 20 73 20 65 -1 70 -2 53 -15 -21 -16 -22 -15 38
-84 l29 -35 90 3 c84 3 94 5 143 38 29 19 55 41 58 49 11 28 -27 28 -76 1 -49
-28 -148 -39 -148 -17 0 6 20 10 44 10 44 0 71 17 58 37 -7 10 -103 24 -174
25 -34 0 -37 3 -40 32 -2 26 -8 32 -30 34 -28 3 -28 4 -28 77 0 73 0 74 28 77
24 3 27 7 27 43 l0 40 -108 3 c-86 2 -108 0 -113 -12z"/>
<path d="M432 868 c3 -67 5 -73 26 -76 19 -3 22 1 22 34 0 36 0 37 20 19 11
-10 20 -26 20 -37 0 -11 7 -18 20 -18 18 0 20 7 20 75 0 68 -2 75 -20 75 -15
0 -20 -7 -20 -27 l-1 -28 -24 28 c-13 15 -33 27 -45 27 -20 0 -21 -5 -18 -72z"/>
<path d="M602 901 c-7 -21 -12 -55 -12 -75 0 -29 4 -36 20 -36 13 0 20 7 20
20 0 13 7 20 20 20 13 0 20 -7 20 -20 0 -15 7 -20 25 -20 22 0 25 4 25 35 0
19 -7 53 -16 75 -15 37 -19 40 -54 40 -34 0 -38 -3 -48 -39z"/>
<path d="M830 865 c0 -73 1 -75 25 -75 22 0 25 4 26 38 0 20 3 31 6 25 2 -7
11 -13 18 -13 7 0 16 6 18 13 3 6 6 -5 6 -25 1 -34 4 -38 26 -38 24 0 25 2 25
75 0 72 -1 75 -24 75 -13 0 -30 -10 -38 -22 l-15 -22 -12 22 c-7 14 -21 22
-36 22 -24 0 -25 -2 -25 -75z"/>
<path d="M1015 890 c-21 -63 -17 -94 13 -98 17 -3 22 2 22 17 0 14 6 21 20 21
14 0 20 -7 20 -21 0 -15 5 -20 23 -17 29 4 33 35 12 98 -16 48 -18 50 -55 50
-37 0 -39 -2 -55 -50z"/>
</g>
</svg>
